<svg width="100%" height="100%" id="svg" viewBox="0 0 1440 590" xmlns="http://www.w3.org/2000/svg" class="transition duration-300 ease-in-out delay-150"><defs><linearGradient id="gradient" x1="0%" y1="50%" x2="100%" y2="50%"><stop offset="5%" stop-color="#e0fbfc"></stop><stop offset="95%" stop-color="#7bdcb5"></stop></linearGradient></defs><path d="M 0,600 C 0,600 0,200 0,200 C 96.06698564593302,183.3492822966507 192.13397129186603,166.69856459330143 282,170 C 371.86602870813397,173.30143540669857 455.53110047846894,196.555023923445 561,194 C 666.4688995215311,191.444976076555 793.7416267942582,163.08133971291863 902,180 C 1010.2583732057418,196.91866028708137 1099.5023923444976,259.1196172248804 1186,270 C 1272.4976076555024,280.8803827751196 1356.248803827751,240.4401913875598 1440,200 C 1440,200 1440,600 1440,600 Z" stroke="none" stroke-width="0" fill="url(#gradient)" fill-opacity="0.53" class="transition-all duration-300 ease-in-out delay-150 path-0"></path><defs><linearGradient id="gradient" x1="0%" y1="50%" x2="100%" y2="50%"><stop offset="5%" stop-color="#e0fbfc"></stop><stop offset="95%" stop-color="#7bdcb5"></stop></linearGradient></defs><path d="M 0,600 C 0,600 0,400 0,400 C 66.25837320574166,360.2392344497608 132.51674641148333,320.47846889952154 248,345 C 363.4832535885167,369.52153110047846 528.1913875598085,458.32535885167465 622,472 C 715.8086124401915,485.67464114832535 738.7177033492824,424.22009569377985 827,384 C 915.2822966507176,343.77990430622015 1068.9377990430623,324.79425837320576 1182,331 C 1295.0622009569377,337.20574162679424 1367.531100478469,368.6028708133971 1440,400 C 1440,400 1440,600 1440,600 Z" stroke="none" stroke-width="0" fill="url(#gradient)" fill-opacity="1" class="transition-all duration-300 ease-in-out delay-150 path-1"></path></svg>